solid model
  facet normal 0 0 -1
    outer loop
      vertex 10 10 10
      vertex 15 15 10
      vertex 15 10 10
    endloop
  endfacet
  facet normal 0 0 1
    outer loop
      vertex 10 10 10
      vertex 15 15 10
      vertex 10 15 10
    endloop
  endfacet
  facet normal 0 0 -1
    outer loop
      vertex 10 10 15
      vertex 15 15 15
      vertex 15 10 15
    endloop
  endfacet
  facet normal 0 0 1
    outer loop
      vertex 10 10 15
      vertex 15 15 15
      vertex 10 15 15
    endloop
  endfacet
  facet normal 0 -1 0
    outer loop
      vertex 10 10 10
      vertex 15 10 15
      vertex 10 10 15
    endloop
  endfacet
  facet normal 0 1 0
    outer loop
      vertex 10 10 10
      vertex 15 10 15
      vertex 15 10 10
    endloop
  endfacet
  facet normal 0 1 0
    outer loop
      vertex 10 15 10
      vertex 15 15 15
      vertex 15 15 10
    endloop
  endfacet
  facet normal 0 -1 0
    outer loop
      vertex 10 15 10
      vertex 15 15 15
      vertex 10 15 15
    endloop
  endfacet
  facet normal 1 0 0
    outer loop
      vertex 15 10 10
      vertex 15 15 15
      vertex 15 10 15
    endloop
  endfacet
  facet normal -1 0 0
    outer loop
      vertex 15 10 10
      vertex 15 15 15
      vertex 15 15 10
    endloop
  endfacet
  facet normal 1 0 0
    outer loop
      vertex 10 10 10
      vertex 10 15 15
      vertex 10 10 15
    endloop
  endfacet
  facet normal -1 0 0
    outer loop
      vertex 10 10 10
      vertex 10 15 15
      vertex 10 15 10
    endloop
  endfacet
endsolid model
